<svg preserveAspectRatio="none" overflow="visible" style="display: block;" width="45.19" height="37.567" viewBox="0 0 45.19 37.567" fill="none" xmlns="http://www.w3.org/2000/svg">
<g id="Layer 1">
<path id="Vector" d="M16.6705 18.8021L11.2377 28.2112L8.89606 32.2618L0 27.1241L4.81615 18.7835L0 10.443L8.89872 5.31585L11.134 9.17515L16.6678 18.7623C16.6674 18.7756 16.6683 18.789 16.6705 18.8021V18.8021Z" fill="url(#paint0_linear_0_356)"/>
<path id="Vector_2" d="M45.19 18.7862C45.19 21.2527 44.7041 23.6951 43.7601 25.9739C42.8162 28.2527 41.4325 30.3232 39.6883 32.0672C37.944 33.8112 35.8733 35.1945 33.5944 36.1382C31.3155 37.0819 28.873 37.5674 26.4065 37.567H12.0537L13.5262 35.0261L17.4068 28.3015H26.4065C27.6696 28.3226 28.9243 28.0921 30.0974 27.6233C31.2705 27.1545 32.3386 26.4569 33.2393 25.5711C34.14 24.6853 34.8554 23.6291 35.3437 22.4639C35.8321 21.2988 36.0835 20.0482 36.0835 18.7849C36.0835 17.5215 35.8321 16.2709 35.3437 15.1058C34.8554 13.9406 34.14 12.8844 33.2393 11.9986C32.3386 11.1128 31.2705 10.4152 30.0974 9.94639C28.9243 9.47761 27.6696 9.24706 26.4065 9.26817H17.3031L13.5262 2.72703L11.9527 0H26.4065C28.8734 -2.46975e-08 31.3161 0.485938 33.5952 1.43006C35.8743 2.37419 37.9451 3.75801 39.6894 5.50251C41.4336 7.247 42.8172 9.31799 43.761 11.5972C44.7048 13.8764 45.1904 16.3193 45.19 18.7862V18.7862Z" fill="url(#paint1_linear_0_356)"/>
</g>
<defs>
<linearGradient id="paint0_linear_0_356" x1="0" y1="18.7835" x2="16.6705" y2="18.7835" gradientUnits="userSpaceOnUse">
<stop stop-color="#FFAF26"/>
<stop offset="1" stop-color="#F85D31"/>
</linearGradient>
<linearGradient id="paint1_linear_0_356" x1="11.9527" y1="18.7835" x2="45.19" y2="18.7835" gradientUnits="userSpaceOnUse">
<stop stop-color="#0EB4E7"/>
<stop offset="1" stop-color="#0B75C2"/>
</linearGradient>
</defs>
</svg>
