<svg preserveAspectRatio="none" overflow="visible" style="display: block;" width="26.075" height="26.075" viewBox="0 0 26.075 26.075" fill="none" xmlns="http://www.w3.org/2000/svg">
<g id="mdi:linkedin">
<path id="Vector" d="M20.6425 3.25941C21.2188 3.25941 21.7715 3.48834 22.179 3.89584C22.5865 4.30334 22.8154 4.85603 22.8154 5.43232V20.6427C22.8154 21.219 22.5865 21.7717 22.179 22.1792C21.7715 22.5867 21.2188 22.8156 20.6425 22.8156H5.43209C4.85579 22.8156 4.3031 22.5867 3.8956 22.1792C3.4881 21.7717 3.25917 21.219 3.25917 20.6427V5.43232C3.25917 4.85603 3.4881 4.30334 3.8956 3.89584C4.3031 3.48834 4.85579 3.25941 5.43209 3.25941H20.6425ZM20.0993 20.0995V14.3413C20.0993 13.4019 19.7261 12.501 19.0619 11.8368C18.3976 11.1726 17.4968 10.7994 16.5574 10.7994C15.6339 10.7994 14.5583 11.3644 14.0368 12.2118V11.0058H11.0056V20.0995H14.0368V14.7433C14.0368 13.9067 14.7104 13.2222 15.547 13.2222C15.9504 13.2222 16.3373 13.3825 16.6225 13.6677C16.9078 13.953 17.068 14.3399 17.068 14.7433V20.0995H20.0993ZM7.47463 9.30011C7.95871 9.30011 8.42297 9.10781 8.76527 8.76551C9.10757 8.42321 9.29987 7.95895 9.29987 7.47486C9.29987 6.46446 8.48503 5.63875 7.47463 5.63875C6.98766 5.63875 6.52064 5.8322 6.1763 6.17654C5.83196 6.52087 5.63851 6.9879 5.63851 7.47486C5.63851 8.48527 6.46422 9.30011 7.47463 9.30011M8.9848 20.0995V11.0058H5.97531V20.0995H8.9848V20.0995Z" fill="#617889"/>
</g>
</svg>
